STARTFONT 2.1
COMMENT
COMMENT Converted from OpenType font "digital-7.otf" by "otf2bdf 3.0".
COMMENT
FONT -FreeType-Digital 7-Medium-R-Normal--18-230-55-55-P-61-ISO10646-1
SIZE 23 55 55
FONTBOUNDINGBOX 9 15 0 -2
STARTPROPERTIES 19
FOUNDRY "FreeType"
FAMILY_NAME "Digital 7"
WEIGHT_NAME "Medium"
SLANT "R"
SETWIDTH_NAME "Normal"
ADD_STYLE_NAME ""
PIXEL_SIZE 18
POINT_SIZE 230
RESOLUTION_X 55
RESOLUTION_Y 55
SPACING "P"
AVERAGE_WIDTH 61
CHARSET_REGISTRY "ISO10646"
CHARSET_ENCODING "1"
FONT_ASCENT 13
FONT_DESCENT -3
COPYRIGHT "Created by Sizenko Alexander. © 2008 Style-7. All rights reserved. http://www.styleseven.com"
_OTF_FONTFILE "digital-7.otf"
_OTF_PSNAME "Digital-7"
ENDPROPERTIES
CHARS 104
STARTCHAR 0020
ENCODING 32
SWIDTH 284 0
DWIDTH 5 0
BBX 0 0 0 0
BITMAP
ENDCHAR
STARTCHAR 0021
ENCODING 33
SWIDTH 170 0
DWIDTH 3 0
BBX 1 11 1 0
BITMAP
80
80
80
80
80
00
80
80
00
00
80
ENDCHAR
STARTCHAR 0022
ENCODING 34
SWIDTH 284 0
DWIDTH 5 0
BBX 4 4 1 8
BITMAP
30
B0
B0
80
ENDCHAR
STARTCHAR 0023
ENCODING 35
SWIDTH 512 0
DWIDTH 9 0
BBX 7 7 1 3
BITMAP
68
9C
9C
68
F6
68
68
ENDCHAR
STARTCHAR 0024
ENCODING 36
SWIDTH 455 0
DWIDTH 8 0
BBX 7 15 1 -2
BITMAP
10
00
FC
90
90
90
80
7C
16
16
16
06
FC
10
10
ENDCHAR
STARTCHAR 0025
ENCODING 37
SWIDTH 569 0
DWIDTH 10 0
BBX 8 11 1 0
BITMAP
F6
B4
FC
08
08
10
30
2F
63
49
CF
ENDCHAR
STARTCHAR 0026
ENCODING 38
SWIDTH 512 0
DWIDTH 9 0
BBX 7 12 1 -1
BITMAP
7C
84
C4
C4
00
7C
86
86
86
80
FE
06
ENDCHAR
STARTCHAR 0027
ENCODING 39
SWIDTH 170 0
DWIDTH 3 0
BBX 1 3 1 8
BITMAP
80
80
80
ENDCHAR
STARTCHAR 0028
ENCODING 40
SWIDTH 341 0
DWIDTH 6 0
BBX 4 11 1 0
BITMAP
E0
80
80
80
80
00
80
80
80
80
70
ENDCHAR
STARTCHAR 0029
ENCODING 41
SWIDTH 341 0
DWIDTH 6 0
BBX 4 11 1 0
BITMAP
C0
30
30
30
10
10
30
30
30
30
E0
ENDCHAR
STARTCHAR 002A
ENCODING 42
SWIDTH 398 0
DWIDTH 7 0
BBX 5 6 1 3
BITMAP
20
20
F8
70
F8
20
ENDCHAR
STARTCHAR 002B
ENCODING 43
SWIDTH 398 0
DWIDTH 7 0
BBX 5 5 1 3
BITMAP
20
20
F8
20
20
ENDCHAR
STARTCHAR 002C
ENCODING 44
SWIDTH 170 0
DWIDTH 3 0
BBX 1 3 1 -2
BITMAP
80
80
80
ENDCHAR
STARTCHAR 002D
ENCODING 45
SWIDTH 398 0
DWIDTH 7 0
BBX 5 1 1 5
BITMAP
F8
ENDCHAR
STARTCHAR 002E
ENCODING 46
SWIDTH 170 0
DWIDTH 3 0
BBX 1 1 1 0
BITMAP
80
ENDCHAR
STARTCHAR 002F
ENCODING 47
SWIDTH 455 0
DWIDTH 8 0
BBX 6 11 1 0
BITMAP
04
0C
08
18
10
20
20
60
40
C0
80
ENDCHAR
STARTCHAR 0030
ENCODING 48
SWIDTH 455 0
DWIDTH 8 0
BBX 7 11 1 0
BITMAP
FE
86
86
86
82
00
86
86
86
86
FC
ENDCHAR
STARTCHAR 0031
ENCODING 49
SWIDTH 170 0
DWIDTH 3 0
BBX 1 11 1 0
BITMAP
80
80
80
80
80
00
80
80
80
80
80
ENDCHAR
STARTCHAR 0032
ENCODING 50
SWIDTH 455 0
DWIDTH 8 0
BBX 7 11 1 0
BITMAP
FE
06
06
06
02
7C
80
80
80
80
FC
ENDCHAR
STARTCHAR 0033
ENCODING 51
SWIDTH 455 0
DWIDTH 8 0
BBX 7 11 1 0
BITMAP
FE
06
06
06
02
7C
06
06
06
06
FC
ENDCHAR
STARTCHAR 0034
ENCODING 52
SWIDTH 455 0
DWIDTH 8 0
BBX 7 11 1 0
BITMAP
86
86
86
86
82
7C
06
06
06
06
04
ENDCHAR
STARTCHAR 0035
ENCODING 53
SWIDTH 455 0
DWIDTH 8 0
BBX 7 11 1 0
BITMAP
F8
80
80
80
80
7C
06
06
06
06
FC
ENDCHAR
STARTCHAR 0036
ENCODING 54
SWIDTH 455 0
DWIDTH 8 0
BBX 7 11 1 0
BITMAP
F8
80
80
80
80
7C
86
86
86
86
FC
ENDCHAR
STARTCHAR 0037
ENCODING 55
SWIDTH 455 0
DWIDTH 8 0
BBX 7 11 1 0
BITMAP
FE
86
86
86
82
00
06
06
06
06
04
ENDCHAR
STARTCHAR 0038
ENCODING 56
SWIDTH 455 0
DWIDTH 8 0
BBX 7 11 1 0
BITMAP
FE
86
86
86
82
7C
86
86
86
86
FC
ENDCHAR
STARTCHAR 0039
ENCODING 57
SWIDTH 455 0
DWIDTH 8 0
BBX 7 11 1 0
BITMAP
FE
86
86
86
82
7C
06
06
06
06
FC
ENDCHAR
STARTCHAR 003A
ENCODING 58
SWIDTH 170 0
DWIDTH 3 0
BBX 1 6 1 3
BITMAP
80
00
00
00
00
80
ENDCHAR
STARTCHAR 003B
ENCODING 59
SWIDTH 170 0
DWIDTH 3 0
BBX 1 11 1 -2
BITMAP
80
00
00
00
00
00
00
00
80
80
80
ENDCHAR
STARTCHAR 003C
ENCODING 60
SWIDTH 341 0
DWIDTH 6 0
BBX 4 7 1 2
BITMAP
30
60
C0
C0
60
30
10
ENDCHAR
STARTCHAR 003D
ENCODING 61
SWIDTH 398 0
DWIDTH 7 0
BBX 5 4 1 4
BITMAP
F8
F8
00
F8
ENDCHAR
STARTCHAR 003E
ENCODING 62
SWIDTH 341 0
DWIDTH 6 0
BBX 4 7 1 2
BITMAP
80
40
20
30
60
C0
80
ENDCHAR
STARTCHAR 003F
ENCODING 63
SWIDTH 455 0
DWIDTH 8 0
BBX 7 11 1 0
BITMAP
FE
06
06
06
02
7C
80
80
00
00
80
ENDCHAR
STARTCHAR 0040
ENCODING 64
SWIDTH 455 0
DWIDTH 8 0
BBX 7 11 1 0
BITMAP
FE
86
BE
A6
A2
00
B6
9E
80
80
F8
ENDCHAR
STARTCHAR 0041
ENCODING 65
SWIDTH 455 0
DWIDTH 8 0
BBX 7 11 1 0
BITMAP
FE
86
86
86
82
7C
86
86
86
86
84
ENDCHAR
STARTCHAR 0042
ENCODING 66
SWIDTH 455 0
DWIDTH 8 0
BBX 7 11 1 0
BITMAP
F8
86
86
86
82
7C
86
86
86
84
F8
ENDCHAR
STARTCHAR 0043
ENCODING 67
SWIDTH 455 0
DWIDTH 8 0
BBX 6 11 1 0
BITMAP
F8
80
80
80
80
00
80
80
80
80
FC
ENDCHAR
STARTCHAR 0044
ENCODING 68
SWIDTH 455 0
DWIDTH 8 0
BBX 7 11 1 0
BITMAP
F8
86
86
86
82
00
86
86
86
84
F8
ENDCHAR
STARTCHAR 0045
ENCODING 69
SWIDTH 455 0
DWIDTH 8 0
BBX 6 11 1 0
BITMAP
F8
80
80
80
80
7C
80
80
80
80
FC
ENDCHAR
STARTCHAR 0046
ENCODING 70
SWIDTH 455 0
DWIDTH 8 0
BBX 6 11 1 0
BITMAP
F8
80
80
80
80
7C
80
80
80
80
80
ENDCHAR
STARTCHAR 0047
ENCODING 71
SWIDTH 455 0
DWIDTH 8 0
BBX 7 11 1 0
BITMAP
F8
80
80
80
80
1C
86
86
86
86
FC
ENDCHAR
STARTCHAR 0048
ENCODING 72
SWIDTH 455 0
DWIDTH 8 0
BBX 7 11 1 0
BITMAP
86
86
86
86
82
7C
86
86
86
86
84
ENDCHAR
STARTCHAR 0049
ENCODING 73
SWIDTH 170 0
DWIDTH 3 0
BBX 1 11 1 0
BITMAP
80
80
80
80
80
00
80
80
80
80
80
ENDCHAR
STARTCHAR 004A
ENCODING 74
SWIDTH 455 0
DWIDTH 8 0
BBX 7 11 1 0
BITMAP
06
06
06
06
02
00
86
86
86
86
FC
ENDCHAR
STARTCHAR 004B
ENCODING 75
SWIDTH 455 0
DWIDTH 8 0
BBX 7 11 1 0
BITMAP
8C
98
B0
E0
80
7C
86
86
86
86
84
ENDCHAR
STARTCHAR 004C
ENCODING 76
SWIDTH 455 0
DWIDTH 8 0
BBX 6 11 1 0
BITMAP
80
80
80
80
80
00
80
80
80
80
FC
ENDCHAR
STARTCHAR 004D
ENCODING 77
SWIDTH 455 0
DWIDTH 8 0
BBX 7 11 1 0
BITMAP
FE
B6
B6
B6
B2
00
86
86
86
86
84
ENDCHAR
STARTCHAR 004E
ENCODING 78
SWIDTH 455 0
DWIDTH 8 0
BBX 7 11 1 0
BITMAP
86
E6
B6
9E
86
00
86
86
86
86
84
ENDCHAR
STARTCHAR 004F
ENCODING 79
SWIDTH 455 0
DWIDTH 8 0
BBX 7 11 1 0
BITMAP
F8
86
86
86
82
00
86
86
86
84
78
ENDCHAR
STARTCHAR 0050
ENCODING 80
SWIDTH 455 0
DWIDTH 8 0
BBX 7 11 1 0
BITMAP
F8
86
86
86
82
7C
80
80
80
80
80
ENDCHAR
STARTCHAR 0051
ENCODING 81
SWIDTH 455 0
DWIDTH 8 0
BBX 7 11 1 0
BITMAP
FE
86
86
86
82
00
86
86
8E
8E
FE
ENDCHAR
STARTCHAR 0052
ENCODING 82
SWIDTH 455 0
DWIDTH 8 0
BBX 7 11 1 0
BITMAP
FE
86
86
86
82
7C
E0
B0
98
8C
84
ENDCHAR
STARTCHAR 0053
ENCODING 83
SWIDTH 455 0
DWIDTH 8 0
BBX 7 11 1 0
BITMAP
FC
80
80
80
80
7C
06
06
06
06
FC
ENDCHAR
STARTCHAR 0054
ENCODING 84
SWIDTH 455 0
DWIDTH 8 0
BBX 6 11 1 0
BITMAP
FC
30
30
30
10
00
30
30
30
30
10
ENDCHAR
STARTCHAR 0055
ENCODING 85
SWIDTH 455 0
DWIDTH 8 0
BBX 7 11 1 0
BITMAP
86
86
86
86
82
00
86
86
86
86
FC
ENDCHAR
STARTCHAR 0056
ENCODING 86
SWIDTH 455 0
DWIDTH 8 0
BBX 7 11 1 0
BITMAP
86
86
86
86
86
00
86
CC
68
30
10
ENDCHAR
STARTCHAR 0057
ENCODING 87
SWIDTH 455 0
DWIDTH 8 0
BBX 7 11 1 0
BITMAP
86
86
86
86
82
10
B6
B6
B6
86
FC
ENDCHAR
STARTCHAR 0058
ENCODING 88
SWIDTH 455 0
DWIDTH 8 0
BBX 6 11 1 0
BITMAP
C4
CC
68
78
30
30
38
78
4C
CC
84
ENDCHAR
STARTCHAR 0059
ENCODING 89
SWIDTH 455 0
DWIDTH 8 0
BBX 7 11 1 0
BITMAP
86
86
86
86
82
7C
06
06
06
06
FC
ENDCHAR
STARTCHAR 005A
ENCODING 90
SWIDTH 455 0
DWIDTH 8 0
BBX 6 11 1 0
BITMAP
F4
0C
08
18
10
20
20
60
40
C0
BC
ENDCHAR
STARTCHAR 005B
ENCODING 91
SWIDTH 284 0
DWIDTH 5 0
BBX 3 11 1 0
BITMAP
E0
80
80
80
80
00
80
80
80
80
E0
ENDCHAR
STARTCHAR 005C
ENCODING 92
SWIDTH 455 0
DWIDTH 8 0
BBX 6 11 1 0
BITMAP
C0
C0
60
60
20
10
18
18
0C
0C
04
ENDCHAR
STARTCHAR 005D
ENCODING 93
SWIDTH 284 0
DWIDTH 5 0
BBX 3 11 1 0
BITMAP
E0
20
20
20
20
00
20
20
20
20
E0
ENDCHAR
STARTCHAR 005E
ENCODING 94
SWIDTH 455 0
DWIDTH 8 0
BBX 6 4 1 7
BITMAP
30
68
C4
80
ENDCHAR
STARTCHAR 005F
ENCODING 95
SWIDTH 455 0
DWIDTH 8 0
BBX 6 1 1 0
BITMAP
FC
ENDCHAR
STARTCHAR 0060
ENCODING 96
SWIDTH 227 0
DWIDTH 4 0
BBX 3 3 1 9
BITMAP
80
C0
60
ENDCHAR
STARTCHAR 0061
ENCODING 97
SWIDTH 455 0
DWIDTH 8 0
BBX 7 11 1 0
BITMAP
FE
86
86
86
82
7C
86
86
86
86
84
ENDCHAR
STARTCHAR 0062
ENCODING 98
SWIDTH 455 0
DWIDTH 8 0
BBX 7 11 1 0
BITMAP
F8
86
86
86
82
7C
86
86
86
84
F8
ENDCHAR
STARTCHAR 0063
ENCODING 99
SWIDTH 455 0
DWIDTH 8 0
BBX 6 11 1 0
BITMAP
F8
80
80
80
80
00
80
80
80
80
FC
ENDCHAR
STARTCHAR 0064
ENCODING 100
SWIDTH 455 0
DWIDTH 8 0
BBX 7 11 1 0
BITMAP
F8
86
86
86
82
00
86
86
86
84
F8
ENDCHAR
STARTCHAR 0065
ENCODING 101
SWIDTH 455 0
DWIDTH 8 0
BBX 6 11 1 0
BITMAP
F8
80
80
80
80
7C
80
80
80
80
FC
ENDCHAR
STARTCHAR 0066
ENCODING 102
SWIDTH 455 0
DWIDTH 8 0
BBX 6 11 1 0
BITMAP
F8
80
80
80
80
7C
80
80
80
80
80
ENDCHAR
STARTCHAR 0067
ENCODING 103
SWIDTH 455 0
DWIDTH 8 0
BBX 7 11 1 0
BITMAP
F8
80
80
80
80
1C
86
86
86
86
FC
ENDCHAR
STARTCHAR 0068
ENCODING 104
SWIDTH 455 0
DWIDTH 8 0
BBX 7 11 1 0
BITMAP
86
86
86
86
82
7C
86
86
86
86
84
ENDCHAR
STARTCHAR 0069
ENCODING 105
SWIDTH 170 0
DWIDTH 3 0
BBX 1 11 1 0
BITMAP
80
80
80
80
80
00
80
80
80
80
80
ENDCHAR
STARTCHAR 006A
ENCODING 106
SWIDTH 455 0
DWIDTH 8 0
BBX 7 11 1 0
BITMAP
06
06
06
06
02
00
86
86
86
86
FC
ENDCHAR
STARTCHAR 006B
ENCODING 107
SWIDTH 455 0
DWIDTH 8 0
BBX 7 11 1 0
BITMAP
8C
98
B0
E0
80
7C
86
86
86
86
84
ENDCHAR
STARTCHAR 006C
ENCODING 108
SWIDTH 455 0
DWIDTH 8 0
BBX 6 11 1 0
BITMAP
80
80
80
80
80
00
80
80
80
80
FC
ENDCHAR
STARTCHAR 006D
ENCODING 109
SWIDTH 455 0
DWIDTH 8 0
BBX 7 11 1 0
BITMAP
FE
B6
B6
B6
B2
00
86
86
86
86
84
ENDCHAR
STARTCHAR 006E
ENCODING 110
SWIDTH 455 0
DWIDTH 8 0
BBX 7 11 1 0
BITMAP
86
E6
B6
9E
86
00
86
86
86
86
84
ENDCHAR
STARTCHAR 006F
ENCODING 111
SWIDTH 455 0
DWIDTH 8 0
BBX 7 11 1 0
BITMAP
F8
86
86
86
82
00
86
86
86
84
78
ENDCHAR
STARTCHAR 0070
ENCODING 112
SWIDTH 455 0
DWIDTH 8 0
BBX 7 11 1 0
BITMAP
F8
86
86
86
82
7C
80
80
80
80
80
ENDCHAR
STARTCHAR 0071
ENCODING 113
SWIDTH 455 0
DWIDTH 8 0
BBX 7 11 1 0
BITMAP
FE
86
86
86
82
00
86
86
8E
8E
FE
ENDCHAR
STARTCHAR 0072
ENCODING 114
SWIDTH 455 0
DWIDTH 8 0
BBX 7 11 1 0
BITMAP
FE
86
86
86
82
7C
E0
B0
98
8C
84
ENDCHAR
STARTCHAR 0073
ENCODING 115
SWIDTH 455 0
DWIDTH 8 0
BBX 7 11 1 0
BITMAP
FC
80
80
80
80
7C
06
06
06
06
FC
ENDCHAR
STARTCHAR 0074
ENCODING 116
SWIDTH 455 0
DWIDTH 8 0
BBX 6 11 1 0
BITMAP
FC
30
30
30
10
00
30
30
30
30
10
ENDCHAR
STARTCHAR 0075
ENCODING 117
SWIDTH 455 0
DWIDTH 8 0
BBX 7 11 1 0
BITMAP
86
86
86
86
82
00
86
86
86
86
FC
ENDCHAR
STARTCHAR 0076
ENCODING 118
SWIDTH 455 0
DWIDTH 8 0
BBX 7 11 1 0
BITMAP
86
86
86
86
86
00
86
CC
68
30
10
ENDCHAR
STARTCHAR 0077
ENCODING 119
SWIDTH 455 0
DWIDTH 8 0
BBX 7 11 1 0
BITMAP
86
86
86
86
82
10
B6
B6
B6
86
FC
ENDCHAR
STARTCHAR 0078
ENCODING 120
SWIDTH 455 0
DWIDTH 8 0
BBX 6 11 1 0
BITMAP
C4
CC
68
78
30
30
38
78
4C
CC
84
ENDCHAR
STARTCHAR 0079
ENCODING 121
SWIDTH 455 0
DWIDTH 8 0
BBX 7 11 1 0
BITMAP
86
86
86
86
82
7C
06
06
06
06
FC
ENDCHAR
STARTCHAR 007A
ENCODING 122
SWIDTH 455 0
DWIDTH 8 0
BBX 6 11 1 0
BITMAP
F4
0C
08
18
10
20
20
60
40
C0
BC
ENDCHAR
STARTCHAR 007B
ENCODING 123
SWIDTH 398 0
DWIDTH 7 0
BBX 5 11 1 0
BITMAP
38
20
20
20
20
C0
20
20
20
20
38
ENDCHAR
STARTCHAR 007C
ENCODING 124
SWIDTH 170 0
DWIDTH 3 0
BBX 1 11 1 0
BITMAP
80
80
80
80
80
80
80
80
80
80
80
ENDCHAR
STARTCHAR 007D
ENCODING 125
SWIDTH 398 0
DWIDTH 7 0
BBX 5 11 1 0
BITMAP
E0
20
20
20
20
18
20
20
20
20
E0
ENDCHAR
STARTCHAR 007E
ENCODING 126
SWIDTH 512 0
DWIDTH 9 0
BBX 6 3 1 6
BITMAP
B4
9C
08
ENDCHAR
STARTCHAR 00A9
ENCODING 169
SWIDTH 512 0
DWIDTH 9 0
BBX 7 11 1 0
BITMAP
FE
82
BA
A2
A2
A2
A2
BA
82
82
FE
ENDCHAR
STARTCHAR 2013
ENCODING 8211
SWIDTH 512 0
DWIDTH 9 0
BBX 7 1 1 5
BITMAP
FE
ENDCHAR
STARTCHAR 2014
ENCODING 8212
SWIDTH 512 0
DWIDTH 9 0
BBX 7 1 1 5
BITMAP
FE
ENDCHAR
STARTCHAR 2018
ENCODING 8216
SWIDTH 170 0
DWIDTH 3 0
BBX 1 3 1 8
BITMAP
80
80
80
ENDCHAR
STARTCHAR 2019
ENCODING 8217
SWIDTH 170 0
DWIDTH 3 0
BBX 1 3 1 8
BITMAP
80
80
80
ENDCHAR
STARTCHAR 201C
ENCODING 8220
SWIDTH 284 0
DWIDTH 5 0
BBX 4 3 1 9
BITMAP
B0
B0
B0
ENDCHAR
STARTCHAR 201D
ENCODING 8221
SWIDTH 284 0
DWIDTH 5 0
BBX 4 4 1 8
BITMAP
30
B0
B0
80
ENDCHAR
STARTCHAR 2022
ENCODING 8226
SWIDTH 341 0
DWIDTH 6 0
BBX 4 4 1 4
BITMAP
70
F0
F0
F0
ENDCHAR
STARTCHAR 2030
ENCODING 8240
SWIDTH 512 0
DWIDTH 9 0
BBX 8 11 1 0
BITMAP
A2
A6
EC
08
20
60
C0
74
13
55
76
ENDCHAR
ENDFONT
